<svg width="115" height="131" viewBox="0 0 115 131" fill="none" xmlns="http://www.w3.org/2000/svg">
<path d="M91.5308 114.65V67.6982C91.5142 66.666 91.2117 65.6587 90.6569 64.7882C90.1021 63.9177 89.3167 63.2182 88.3881 62.7673L31.4931 34.7533C30.6356 34.3463 29.69 34.1602 28.7423 34.2121C27.7945 34.264 26.8748 34.5522 26.0669 35.0504C25.2591 35.5486 24.5886 36.241 24.1168 37.0645C23.6449 37.888 23.3865 38.8166 23.3652 39.7655V75.4196" stroke="#60B9DE"/>
<path d="M68.774 130.499V101.293C68.7595 100.236 68.4466 99.205 67.8714 98.3182C67.2962 97.4314 66.482 96.7252 65.5228 96.281L8.62786 68.1858C7.77245 67.7796 6.82919 67.5933 5.88359 67.6439C4.938 67.6945 4.01998 67.9802 3.21277 68.4753C2.40556 68.9704 1.73469 69.6592 1.26098 70.4791C0.787267 71.299 0.525703 72.2243 0.5 73.1708V94.2762C0.504675 95.3215 0.801415 96.3447 1.35674 97.2304C1.91206 98.116 2.70385 98.8288 3.64277 99.2884L65.5228 129.903C66.4685 130.37 67.5241 130.569 68.575 130.479C69.6258 130.388 70.6317 130.011 71.4833 129.389L111.906 99.5864C112.637 99.0726 113.235 98.3914 113.65 97.5997C114.065 96.8079 114.284 95.9285 114.29 95.0348V34.0759C114.285 33.0305 113.989 32.0073 113.433 31.1217C112.878 30.236 112.086 29.5232 111.147 29.0637L54.2522 1.04967C53.3948 0.642657 52.4491 0.45662 51.5014 0.50851C50.5537 0.5604 49.634 0.848566 48.8261 1.34676C48.0182 1.84496 47.3478 2.53736 46.8759 3.3609C46.404 4.18443 46.1457 5.11294 46.1244 6.06185V41.8244" stroke="#60B9DE"/>
</svg>
