<svg width="124" height="124" viewBox="0 0 124 124" fill="none" xmlns="http://www.w3.org/2000/svg">
<path d="M86.4125 97.1657V63.5888C86.4007 62.8507 86.1843 62.1303 85.7875 61.5078C85.3908 60.8853 84.8291 60.385 84.165 60.0626L43.4775 40.0288C42.8643 39.7378 42.1881 39.6047 41.5103 39.6418C40.8326 39.6789 40.1749 39.885 39.5971 40.2413C39.0194 40.5976 38.5399 41.0927 38.2025 41.6817C37.865 42.2706 37.6803 42.9346 37.665 43.6132V69.1107" stroke="white"/>
<path d="M70.1375 108.5V87.6138C70.1271 86.858 69.9034 86.1204 69.492 85.4862C69.0806 84.8521 68.4984 84.347 67.8125 84.0294L27.125 63.9375C26.5133 63.6471 25.8387 63.5139 25.1625 63.55C24.4863 63.5862 23.8298 63.7906 23.2525 64.1446C22.6752 64.4987 22.1955 64.9912 21.8567 65.5776C21.5179 66.164 21.3309 66.8256 21.3125 67.5025V82.5957C21.3158 83.3432 21.5281 84.075 21.9252 84.7083C22.3223 85.3417 22.8885 85.8514 23.56 86.18L67.8125 108.074C68.4888 108.408 69.2437 108.55 69.9952 108.485C70.7467 108.42 71.466 108.151 72.075 107.706L100.982 86.3932C101.506 86.0257 101.933 85.5386 102.23 84.9724C102.526 84.4062 102.683 83.7773 102.688 83.1382V39.5444C102.684 38.7969 102.472 38.0651 102.075 37.4318C101.678 36.7984 101.111 36.2887 100.44 35.96L59.7525 15.9263C59.1393 15.6352 58.463 15.5022 57.7853 15.5393C57.1075 15.5764 56.4498 15.7825 55.8721 16.1388C55.2943 16.495 54.8149 16.9902 54.4774 17.5791C54.14 18.1681 53.9552 18.8321 53.94 19.5107V45.0857" stroke="white"/>
</svg>
